<svg xmlns="http://www.w3.org/2000/svg" width="40" height="30" viewBox="0 0 40 30">
  <g id="email_1_" data-name="email (1)" transform="translate(0 -64)">
    <g id="Group_457" data-name="Group 457" transform="translate(0 64)">
      <path id="Path_1592" data-name="Path 1592" d="M39.286,64H.714A.714.714,0,0,0,0,64.714V93.286A.714.714,0,0,0,.714,94H39.286A.714.714,0,0,0,40,93.286V64.714A.714.714,0,0,0,39.286,64ZM12.665,81.63l-10,10.714a.714.714,0,1,1-1.044-.974l10-10.714a.714.714,0,1,1,1.044.974ZM38.344,92.379a.714.714,0,0,1-1.009-.035l-10-10.714a.714.714,0,1,1,1.044-.974l10,10.714A.714.714,0,0,1,38.344,92.379ZM38.316,66.69,21.838,80.532a2.853,2.853,0,0,1-3.676,0L1.684,66.69A.714.714,0,0,1,2.6,65.6L19.081,79.439a1.429,1.429,0,0,0,1.839,0L37.4,65.6a.714.714,0,1,1,.919,1.094Z" transform="translate(0 -64)" fill="#10aea8"/>
    </g>
  </g>
</svg>
