<svg id="Group_224" data-name="Group 224" xmlns="http://www.w3.org/2000/svg" width="27.889" height="27.903" viewBox="0 0 27.889 27.903">
  <g id="Group_9" data-name="Group 9">
    <g id="Group_8" data-name="Group 8">
      <rect id="Rectangle_18" data-name="Rectangle 18" width="5.595" height="18.076" transform="translate(0.538 9.827)" fill="#10aea8"/>
      <path id="Path_12" data-name="Path 12" d="M215.955,411.118a3.336,3.336,0,1,0-3.309-3.336A3.323,3.323,0,0,0,215.955,411.118Z" transform="translate(-212.646 -404.446)" fill="#10aea8"/>
    </g>
    <path id="Path_13" data-name="Path 13" d="M226.53,421.029c0-2.541,1.169-4.055,3.409-4.055,2.057,0,3.046,1.454,3.046,4.055v9.489h5.568V419.073c0-4.842-2.744-7.182-6.576-7.182a6.3,6.3,0,0,0-5.447,2.987v-2.435h-5.367v18.076h5.367Z" transform="translate(-210.665 -402.615)" fill="#10aea8"/>
  </g>
</svg>
