<svg id="Group_442" data-name="Group 442" xmlns="http://www.w3.org/2000/svg" width="52.074" height="52" viewBox="0 0 52.074 52">
  <rect id="Rectangle_1448" data-name="Rectangle 1448" width="5.571" height="43.355" transform="translate(13.834 43.963) rotate(-135)" fill="#0f75bc"/>
  <path id="Path_1589" data-name="Path 1589" d="M14.463,46.308a.9.9,0,0,1-.262.176l-.016.007L5.009,50.425A.928.928,0,0,1,3.79,49.206L7.722,40.03l.007-.016a.9.9,0,0,1,.176-.262c.008-.008.011-.02.02-.029L35.286,12.362V1.286a.929.929,0,0,0-.929-.929H.929A.928.928,0,0,0,0,1.286V51.428a.929.929,0,0,0,.929.929H34.357a.929.929,0,0,0,.929-.929V25.494L14.491,46.288C14.486,46.3,14.471,46.3,14.463,46.308ZM6.5,6.857H28.786a.929.929,0,0,1,0,1.857H6.5a.929.929,0,1,1,0-1.857Zm0,5.571H28.786a.929.929,0,0,1,0,1.857H6.5a.929.929,0,1,1,0-1.857ZM6.5,18H23.214a.929.929,0,1,1,0,1.857H6.5A.929.929,0,1,1,6.5,18Z" transform="translate(0 -0.357)" fill="#0f75bc"/>
  <path id="Path_1590" data-name="Path 1590" d="M67.813,406.55,64.5,403.237l-2.485,5.8Z" transform="translate(-55.604 -361.589)" fill="#0f75bc"/>
  <rect id="Rectangle_1449" data-name="Rectangle 1449" width="5.571" height="2.145" transform="translate(45.804 11.992) rotate(-135)" fill="#0f75bc"/>
  <path id="Path_1591" data-name="Path 1591" d="M438.921,18.429a2.786,2.786,0,0,0-3.94,0l-2.627,2.622,3.94,3.94,2.627-2.627A2.791,2.791,0,0,0,438.921,18.429Z" transform="translate(-387.659 -15.829)" fill="#0f75bc"/>
</svg>
