<svg xmlns="http://www.w3.org/2000/svg" width="46.766" height="52" viewBox="0 0 46.766 52">
  <g id="home_2_" data-name="home (2)" transform="translate(-25.765)">
    <g id="Group_439" data-name="Group 439" transform="translate(25.765)">
      <g id="Group_438" data-name="Group 438" transform="translate(0)">
        <path id="Path_1579" data-name="Path 1579" d="M211.3,365.625h-9.287a.929.929,0,0,0-.929.929v13.931H212.23V366.554A.929.929,0,0,0,211.3,365.625Zm-7.43,8.359h-.929a.929.929,0,0,1,0-1.858h.929a.929.929,0,0,1,0,1.858Z" transform="translate(-183.276 -328.485)" fill="#0f75bc"/>
        <path id="Path_1580" data-name="Path 1580" d="M72.243,23.378,49.8.27A.912.912,0,0,0,48.5.27L26.05,23.378a1.009,1.009,0,0,0-.2,1.108.919.919,0,0,0,.848.58h.318a.9.9,0,0,0,.65-.279c.007-.007.017-.009.023-.016a.247.247,0,0,1,.021-.023l2.16-2.224L48.483,3.356a.956.956,0,0,1,1.332,0L68.426,22.525l2.16,2.224c.008.007.013.016.021.023s.017.008.023.016a.9.9,0,0,0,.65.279H71.6a.919.919,0,0,0,.848-.58A1.009,1.009,0,0,0,72.243,23.378Z" transform="translate(-25.765)" fill="#0f75bc"/>
        <path id="Path_1581" data-name="Path 1581" d="M210.229,201.983v6.5a.929.929,0,0,0,.929.929h7.43a.929.929,0,0,0,.929-.929v-6.5a.929.929,0,0,0-.929-.929h-7.43A.929.929,0,0,0,210.229,201.983Z" transform="translate(-191.491 -180.631)" fill="#0f75bc"/>
        <path id="Path_1582" data-name="Path 1582" d="M82.229,70.7V98.263a.929.929,0,0,0,.929.929h9.287V85.261a2.786,2.786,0,0,1,2.786-2.786h9.287a2.786,2.786,0,0,1,2.786,2.786V99.192h9.287a.929.929,0,0,0,.929-.929V70.7L99.875,52.528Zm24.147-2.158v6.5a2.786,2.786,0,0,1-2.786,2.786H96.16a2.786,2.786,0,0,1-2.786-2.786v-6.5a2.786,2.786,0,0,1,2.786-2.786h7.43A2.786,2.786,0,0,1,106.376,68.544Z" transform="translate(-76.493 -47.192)" fill="#0f75bc"/>
      </g>
    </g>
  </g>
</svg>
