<svg xmlns="http://www.w3.org/2000/svg" width="47.984" height="45.985" viewBox="0 0 47.984 45.985">
  <g id="paper-plane_2_" data-name="paper-plane (2)" transform="translate(0 0)">
    <path id="Path_599" data-name="Path 599" d="M8.75,17.612v9.273a1.5,1.5,0,0,0,2.707.888l5.424-7.382Z" transform="translate(8.744 17.601)" fill="#0f75bc"/>
    <path id="Path_600" data-name="Path 600" d="M47.355.278A1.5,1.5,0,0,0,45.791.17L.806,23.662a1.5,1.5,0,0,0,.208,2.749L13.52,30.686,40.153,7.913,19.544,32.743,40.5,39.907a1.534,1.534,0,0,0,.484.08,1.5,1.5,0,0,0,1.484-1.278l5.5-36.988A1.5,1.5,0,0,0,47.355.278Z" transform="translate(0 0)" fill="#0f75bc"/>
  </g>
</svg>
