<svg xmlns="http://www.w3.org/2000/svg" width="52.004" height="52" viewBox="0 0 52.004 52">
  <g id="cogs" transform="translate(0 -0.02)">
    <g id="Page-1" transform="translate(0 0.02)">
      <g id="_x30_01---Cogs" transform="translate(0 0)">
        <path id="Shape" d="M155.45,223.795a13.929,13.929,0,1,0-13.929-13.929A13.929,13.929,0,0,0,155.45,223.795Zm0-23.215a9.286,9.286,0,1,1-9.286,9.286A9.286,9.286,0,0,1,155.45,200.58Z" transform="translate(-129.449 -179.225)" fill="#0f75bc"/>
        <path id="Shape_1_" d="M80.91,82.4a2.3,2.3,0,0,1,2.786-.047l1.931,1.383c.514-.314,1.042-.593,1.579-.856a5.564,5.564,0,1,0-9.44,2.693c.019-.025.032-.053.051-.077A19.169,19.169,0,0,1,79.3,83.86,21.411,21.411,0,0,1,80.91,82.4Z" transform="translate(-69.704 -69.639)" fill="#0f75bc"/>
        <path id="Shape_2_" d="M1.9,13.442a.928.928,0,0,1,.757.715,9.691,9.691,0,0,0,1.331,3.188.929.929,0,0,1-.026,1.048l-1.1,1.53c.206.245.446.5.692.753.231.224.479.449.735.67l1.528-1.1a.929.929,0,0,1,1.047-.027A9.6,9.6,0,0,0,9.091,21.28c.122-.218.234-.44.365-.65L8.071,18.7a2.319,2.319,0,0,1-.269-.505A7.354,7.354,0,0,1,4.643,12.13a7.429,7.429,0,1,1,14.857,0c0,.114-.02.227-.024.342a19.177,19.177,0,0,1,1.95-.6l.233-1.424a.917.917,0,0,1-.169-.347A9.691,9.691,0,0,0,20.16,6.915a.929.929,0,0,1,.026-1.048l1.1-1.53c-.209-.249-.442-.5-.682-.743s-.488-.464-.743-.682l-1.532,1.1a.928.928,0,0,1-1.041.027A9.89,9.89,0,0,0,14.1,2.71a.929.929,0,0,1-.715-.757l-.3-1.845a11.753,11.753,0,0,0-2.021,0l-.3,1.845a.928.928,0,0,1-.715.757A9.888,9.888,0,0,0,6.852,4.035a.928.928,0,0,1-1.041-.027l-1.533-1.1c-.245.206-.5.446-.753.692-.229.229-.459.48-.671.733l1.1,1.53a.929.929,0,0,1,.026,1.048A9.692,9.692,0,0,0,2.652,10.1a.929.929,0,0,1-.757.715l-1.845.3c-.029.327-.05.662-.05,1.01s.02.679.05,1.01Z" transform="translate(0 -0.061)" fill="#0f75bc"/>
        <circle id="Oval" cx="7.429" cy="7.429" r="7.429" transform="translate(18.572 23.212)" fill="#0f75bc"/>
        <path id="Shape_3_" d="M413.933,81.76a5.572,5.572,0,1,0-11,1.171c.535.263,1.063.542,1.579.856l1.934-1.384a2.3,2.3,0,0,1,2.765.034,21.391,21.391,0,0,1,1.635,1.486,19.036,19.036,0,0,1,1.47,1.616c.021.028.037.059.058.087A5.52,5.52,0,0,0,413.933,81.76Z" transform="translate(-368.432 -69.692)" fill="#0f75bc"/>
        <path id="Shape_4_" d="M357.92,12.43c0-.114-.024-.227-.024-.342a7.429,7.429,0,0,1,14.857,0,7.35,7.35,0,0,1-3.157,6.057,2.309,2.309,0,0,1-.27.508l-1.383,1.931c.131.214.243.436.365.65a9.6,9.6,0,0,0,2.235-1.062.929.929,0,0,1,1.047.027l1.529,1.1c.239-.207.5-.441.754-.691.223-.231.456-.478.671-.734l-1.1-1.529a.929.929,0,0,1-.026-1.048,9.691,9.691,0,0,0,1.331-3.188.929.929,0,0,1,.757-.715l1.845-.3c.029-.326.05-.661.05-1.01s-.02-.679-.05-1.01l-1.845-.3a.928.928,0,0,1-.757-.715,9.69,9.69,0,0,0-1.331-3.188.929.929,0,0,1,.026-1.048l1.1-1.53c-.209-.249-.442-.5-.682-.743s-.488-.464-.743-.682l-1.532,1.1a.928.928,0,0,1-1.041.027,9.889,9.889,0,0,0-3.193-1.324.929.929,0,0,1-.715-.757l-.3-1.845a11.753,11.753,0,0,0-2.021,0l-.3,1.845a.928.928,0,0,1-.715.757,9.888,9.888,0,0,0-3.193,1.324.928.928,0,0,1-1.041-.027l-1.533-1.1c-.245.206-.5.446-.753.692-.229.229-.459.48-.671.733l1.1,1.53a.929.929,0,0,1,.026,1.048,9.692,9.692,0,0,0-1.331,3.188.918.918,0,0,1-.169.347l.233,1.424A19.2,19.2,0,0,1,357.92,12.43Z" transform="translate(-325.396 -0.02)" fill="#0f75bc"/>
        <path id="Shape_5_" d="M65.126,115.509l-2.446-1.748a.451.451,0,0,0-.549-.006,20.957,20.957,0,0,0-2.8,2.8.453.453,0,0,0,.02.527l1.752,2.446a.929.929,0,0,1,.021,1.05,17.345,17.345,0,0,0-2.5,6.026.929.929,0,0,1-.76.728l-2.958.486a.445.445,0,0,0-.384.371,18.686,18.686,0,0,0,0,3.98.464.464,0,0,0,.382.362l2.959.486a.929.929,0,0,1,.76.728,17.341,17.341,0,0,0,2.5,6.026.929.929,0,0,1-.021,1.05l-1.747,2.446a.457.457,0,0,0-.006.55,21.363,21.363,0,0,0,2.815,2.81.446.446,0,0,0,.516-.029l2.446-1.752a.928.928,0,0,1,1.05-.021,17.345,17.345,0,0,0,6.026,2.5.929.929,0,0,1,.728.76l.486,2.958a.445.445,0,0,0,.371.384,18.52,18.52,0,0,0,3.98,0,.443.443,0,0,0,.362-.382l.486-2.959a.929.929,0,0,1,.728-.76,17.34,17.34,0,0,0,6.026-2.5.929.929,0,0,1,1.05.021l2.446,1.747a.448.448,0,0,0,.55.006,21.308,21.308,0,0,0,2.8-2.8.448.448,0,0,0-.012-.517l-1.76-2.456a.929.929,0,0,1-.021-1.05,17.345,17.345,0,0,0,2.5-6.026.929.929,0,0,1,.76-.728l2.958-.486a.464.464,0,0,0,.384-.371,18.729,18.729,0,0,0,0-3.972.447.447,0,0,0-.383-.371l-2.959-.486a.929.929,0,0,1-.76-.728,17.341,17.341,0,0,0-2.5-6.026.929.929,0,0,1,.021-1.05l1.747-2.445a.456.456,0,0,0,.014-.54,21.042,21.042,0,0,0-2.813-2.8.443.443,0,0,0-.526.019l-2.447,1.746a.929.929,0,0,1-1.05.021,17.361,17.361,0,0,0-6.026-2.5.929.929,0,0,1-.728-.76l-.486-2.959a.445.445,0,0,0-.371-.383,18.52,18.52,0,0,0-3.98,0,.443.443,0,0,0-.362.381l-.486,2.96a.929.929,0,0,1-.728.76,17.356,17.356,0,0,0-6.026,2.5A.929.929,0,0,1,65.126,115.509Zm10.647-1.114a15.786,15.786,0,1,1-15.786,15.786A15.786,15.786,0,0,1,75.773,114.395Z" transform="translate(-49.773 -99.54)" fill="#0f75bc"/>
      </g>
    </g>
  </g>
</svg>
