<svg xmlns="http://www.w3.org/2000/svg" width="41.744" height="51" viewBox="0 0 41.744 51">
  <g id="file" transform="translate(-86.9)">
    <path id="Path_612" data-name="Path 612" d="M230.731,108.4H229.24v36.636a4.421,4.421,0,0,1-4.415,4.415H197.7v1.358a2.818,2.818,0,0,0,2.817,2.817h30.208a2.818,2.818,0,0,0,2.817-2.817V111.217A2.814,2.814,0,0,0,230.731,108.4Z" transform="translate(-104.899 -102.627)" fill="#ed1c24"/>
    <path id="Path_613" data-name="Path 613" d="M104.816,45.227h15.1a2.818,2.818,0,0,0,2.817-2.817V2.817A2.818,2.818,0,0,0,119.92,0H99.794V.932a2.736,2.736,0,0,1,.016.3V8.947a3.971,3.971,0,0,1-3.968,3.968H88.125c-.08,0-.165-.005-.245-.011H86.9V42.41a2.818,2.818,0,0,0,2.817,2.817h15.1Zm.57-9.576H95.538a1.331,1.331,0,1,1,0-2.663h9.853a1.331,1.331,0,1,1-.005,2.663Zm9.853-6.8h-19.7a1.331,1.331,0,1,1,0-2.663h19.7a1.331,1.331,0,0,1,0,2.663Zm-19.7-9.879h19.7a1.331,1.331,0,0,1,0,2.663h-19.7a1.331,1.331,0,1,1,0-2.663Z" fill="#ed1c24"/>
    <path id="Path_614" data-name="Path 614" d="M88.737,12.075h7.738a2.364,2.364,0,0,0,2.343-2.343V1.988A1.186,1.186,0,0,0,97.625.8a1.154,1.154,0,0,0-.831.352l-8.9,8.9A1.186,1.186,0,0,0,88.737,12.075Z" transform="translate(-0.612 -0.757)" fill="#ed1c24"/>
  </g>
</svg>
