<svg id="Group_459" data-name="Group 459" xmlns="http://www.w3.org/2000/svg" width="40.729" height="40" viewBox="0 0 40.729 40">
  <g id="Group_458" data-name="Group 458" transform="translate(0 0)">
    <path id="Path_1593" data-name="Path 1593" d="M99.216,31.792c1.805,2.54,3.564,4.763,4.72,6.182.252.313.487.6.7.853l.345.418a.748.748,0,0,0,1.108-.007l.339-.411c.214-.257.449-.54.7-.849,1.16-1.42,2.918-3.643,4.723-6.182a62.363,62.363,0,0,0,4.695-7.564,15.7,15.7,0,0,0,2.08-6.535,13.105,13.105,0,0,0-3.844-9.23l-.011-.009-.007-.007a13.02,13.02,0,0,0-18.49-.029,13.079,13.079,0,0,0-3.83,9.275,15.725,15.725,0,0,0,2.081,6.536A62.345,62.345,0,0,0,99.216,31.792Zm1.174-19.987a7.226,7.226,0,0,1,5.143-2.13.727.727,0,0,1,0,1.455,5.818,5.818,0,1,0,4.114,1.7.727.727,0,1,1,1.028-1.028,7.273,7.273,0,1,1-10.285,0Z" transform="translate(-85.168 -4.584)" fill="#10aea8"/>
    <path id="Path_1594" data-name="Path 1594" d="M41.64,396.982l-4.474-8a.8.8,0,0,0-.711-.4H27.037c-1.14,1.513-2.182,2.817-2.951,3.761-.175.218-.333.408-.494.6h3.59a.727.727,0,1,1,0,1.455H15.546a.727.727,0,1,1,0-1.455h3.589c-.161-.194-.319-.385-.5-.606-.769-.942-1.807-2.245-2.946-3.758H6.273a.8.8,0,0,0-.709.4l-4.474,8a.646.646,0,0,0,0,.667.8.8,0,0,0,.706.392H40.928a.8.8,0,0,0,.706-.389A.646.646,0,0,0,41.64,396.982Zm-30.457-.4H5.364a.727.727,0,1,1,0-1.455h5.818a.727.727,0,1,1,0,1.455Zm2.06-3.233a.727.727,0,0,1-1.009.2l-2-1.332H7.546a.727.727,0,1,1,0-1.455h2.909a.732.732,0,0,1,.4.122l2.182,1.455a.727.727,0,0,1,.2,1.009Zm16.849.324a.727.727,0,0,1-.4-1.332l2.182-1.455a.732.732,0,0,1,.4-.122h2.909a.727.727,0,1,1,0,1.455H32.491l-2,1.332A.726.726,0,0,1,30.091,393.672Zm7.273,2.909H31.546a.727.727,0,1,1,0-1.455h5.818a.727.727,0,1,1,0,1.455Z" transform="translate(-1 -358.036)" fill="#10aea8"/>
  </g>
</svg>
