<svg xmlns="http://www.w3.org/2000/svg" width="20.999" height="21" viewBox="0 0 20.999 21">
  <g id="magnifying-glass_1_" data-name="magnifying-glass (1)" transform="translate(-0.001 0)">
    <path id="Path_487" data-name="Path 487" d="M14.024,2.4A8.218,8.218,0,1,0,12.9,14.955a1.73,1.73,0,0,0,.469.871l4.665,4.665a1.736,1.736,0,0,0,2.455-2.455L15.825,13.37a1.736,1.736,0,0,0-.87-.468A8.226,8.226,0,0,0,14.024,2.4ZM12.551,12.552a6.134,6.134,0,1,1,0-8.675A6.141,6.141,0,0,1,12.551,12.552Z" fill="#3a3a3a"/>
  </g>
</svg>
