<svg xmlns="http://www.w3.org/2000/svg" width="52.003" height="52" viewBox="0 0 52.003 52">
  <g id="telephone" transform="translate(-1 -0.016)">
    <g id="Group_441" data-name="Group 441" transform="translate(1 0.016)">
      <g id="Group_440" data-name="Group 440" transform="translate(0 0)">
        <path id="Path_1587" data-name="Path 1587" d="M2.18,15.137a.946.946,0,0,0,1.114.65L8.9,14.71l4.331-.951A.892.892,0,0,0,14,12.8l-.529-4.05c-.241-1.857,1.7-2.995,3.732-3.3a61.921,61.921,0,0,1,19.468-.043c1.4.242,2.786.584,3.386,1.438a3.584,3.584,0,0,1,.39,2.666l-.38,2.693a1.8,1.8,0,0,0,.059,1.166c.237.313.982.455,1.427.54.689.132,1.219.264,1.75.4.5.124,1,.25,1.653.371l5.03.963a2.572,2.572,0,0,0,1.441.026c.318-.166.442-.631.6-1.322l.033-.141c.107-.471.248-.938.388-1.4a8.413,8.413,0,0,0,.509-2.589,5.627,5.627,0,0,0-1.9-3.685C45.11.691,34.481.016,27,.016,10.069.016,3.76,4.648,1.45,8.534a3.29,3.29,0,0,0-.332,2.532Z" transform="translate(-1 -0.016)" fill="#0f75bc"/>
        <path id="Path_1588" data-name="Path 1588" d="M44.675,181.445a.929.929,0,1,1,0-1.857h7.448L41.048,164.557a1.864,1.864,0,0,0-1.495-.755H36.317a.929.929,0,0,1-.921-.813l-.929-7.429a.8.8,0,0,1-.007-.115H31.675v7.429a.929.929,0,0,1-.929.929H23.317a.929.929,0,0,1-.929-.929v-7.429H19.6a.794.794,0,0,1-.007.115l-.929,7.429a.929.929,0,0,1-.921.813H14.511a1.864,1.864,0,0,0-1.495.755L1.941,179.588H40.032a.929.929,0,1,1,0,1.857h-39v7.429a2.786,2.786,0,0,0,2.786,2.786H50.246a2.786,2.786,0,0,0,2.786-2.786v-7.429Zm-8.351-7.2a7.224,7.224,0,0,1-2.279,1.872,12.536,12.536,0,0,1-3.189,1.185,17.412,17.412,0,0,1-7.65,0,12.536,12.536,0,0,1-3.189-1.185,7.225,7.225,0,0,1-2.279-1.872,3.993,3.993,0,0,1,0-5.107,7.224,7.224,0,0,1,2.279-1.872,12.536,12.536,0,0,1,3.189-1.185,17.513,17.513,0,0,1,7.65,0,.929.929,0,1,1-.421,1.809,15.623,15.623,0,0,0-6.808,0,10.673,10.673,0,0,0-2.715,1,5.471,5.471,0,0,0-1.7,1.376,2.151,2.151,0,0,0,0,2.843,5.467,5.467,0,0,0,1.7,1.376,10.647,10.647,0,0,0,2.714,1,15.623,15.623,0,0,0,6.808,0,10.672,10.672,0,0,0,2.715-1,5.47,5.47,0,0,0,1.7-1.376,2.151,2.151,0,0,0,0-2.843.929.929,0,1,1,1.472-1.132A3.993,3.993,0,0,1,36.324,174.248Z" transform="translate(-1.029 -139.659)" fill="#0f75bc"/>
      </g>
    </g>
  </g>
</svg>
