<svg xmlns="http://www.w3.org/2000/svg" width="14.106" height="11.461" viewBox="0 0 14.106 11.461">
  <path id="twitter" d="M14.106,49.357a6.03,6.03,0,0,1-1.666.457,2.876,2.876,0,0,0,1.272-1.6,5.779,5.779,0,0,1-1.834.7,2.892,2.892,0,0,0-5,1.977,2.978,2.978,0,0,0,.067.659A8.185,8.185,0,0,1,.982,48.527a2.893,2.893,0,0,0,.889,3.865,2.856,2.856,0,0,1-1.307-.356v.032a2.905,2.905,0,0,0,2.317,2.841,2.886,2.886,0,0,1-.758.1,2.557,2.557,0,0,1-.547-.049,2.919,2.919,0,0,0,2.7,2.014A5.811,5.811,0,0,1,.692,58.2,5.416,5.416,0,0,1,0,58.163a8.141,8.141,0,0,0,4.436,1.3,8.174,8.174,0,0,0,8.231-8.229c0-.128,0-.251-.011-.374A5.769,5.769,0,0,0,14.106,49.357Z" transform="translate(0 -48)" fill="#fff"/>
</svg>
